<?xml version="1.0" encoding="UTF-8"?>
<svg version="1.1" xmlns="http://www.w3.org/2000/svg" width="416" height="345">
<path d="M0 0 C0.68884277 0.32581055 1.37768555 0.65162109 2.08740234 0.98730469 C16.67846351 8.01870245 29.81710178 17.44953427 41.50390625 28.62890625 C43.46790561 30.49455197 45.42677338 32.15919634 47.5625 33.8125 C60.20449753 44.55206101 70.3825324 61.62113648 77.13671875 76.5859375 C78.8509016 79.31871071 78.8509016 79.31871071 82.265625 79.8359375 C84.11414063 79.91714844 84.11414063 79.91714844 86 80 C87.71896484 80.10054687 87.71896484 80.10054687 89.47265625 80.203125 C102.14516232 80.36859842 112.9445159 78.86213604 123.890625 72.20703125 C126 71 126 71 128 71 C127.51570317 79.87877524 124.30104688 86.08754216 117.9375 92.3125 C112.88522635 96.58815726 107.3364855 98.37031168 101 100 C101.54269531 101.01578125 102.08539063 102.0315625 102.64453125 103.078125 C111.43596068 119.8321829 115.59894987 137.55873853 110.375 156.3125 C108.39999201 161.65259128 105.91891335 165.87807988 102 170 C101.38640625 170.65355469 100.7728125 171.30710938 100.140625 171.98046875 C93.6826988 178.25631056 85.98901079 182.04233457 78 186 C77.91098974 190.27249266 77.91492303 194.383192 78.5 198.625 C80.52390324 213.59593132 79.32010681 228.67886106 70 241 C62.8134227 249.63934777 53.83951775 254.47682667 43.54296875 258.62890625 C37.51102378 261.88115308 33.53949403 267.93377625 29.3125 273.1875 C4.58897572 303.45522389 -28.12928587 320.59167171 -67 325 C-71.98289958 325.30697918 -76.94584051 325.38220523 -81.9375 325.375 C-82.61053162 325.37412384 -83.28356323 325.37324768 -83.97698975 325.37234497 C-122.52531562 325.20805554 -156.52029334 310.82997785 -184 284 C-188.1528857 279.79984569 -192.08098331 275.61285654 -195.14453125 270.54296875 C-200.93700159 261.14576377 -206.55478071 257.69162681 -216.77734375 253.71875 C-227.13883887 249.68233514 -236.63150723 240.39643962 -241.1953125 230.21875 C-246.77368322 214.83761133 -246.13853641 199.10645581 -246 183 C-247.00933594 182.63648438 -247.00933594 182.63648438 -248.0390625 182.265625 C-262.26451889 176.18508691 -275.31085093 166.78512671 -282.05859375 152.52734375 C-286.53966724 140.49724188 -288.18679634 128.14624337 -288.125 115.375 C-288.12886719 114.56804687 -288.13273437 113.76109375 -288.13671875 112.9296875 C-288.13296416 110.61685813 -288.07116119 108.31158273 -288 106 C-287.99613281 104.741875 -287.99226563 103.48375 -287.98828125 102.1875 C-286.89148771 98.65001569 -286.58633613 98.37910978 -283.53515625 96.6640625 C-282.05335816 95.96478512 -280.56173413 95.2860684 -279.0625 94.625 C-264.69085785 87.56385759 -258.44991379 79.00905012 -251.14648438 65.12841797 C-234.34740886 33.94137786 -204.5098433 11.66512042 -173 -3 C-172.0203125 -3.46019531 -171.040625 -3.92039062 -170.03125 -4.39453125 C-154.47319761 -11.27765836 -137.71148103 -15.16273667 -121 -18 C-119.72125 -18.226875 -118.4425 -18.45375 -117.125 -18.6875 C-76.95814113 -24.61375787 -36.47300448 -17.31523316 0 0 Z M-100 157 C-100 157.33 -100 157.66 -100 158 C-95.05 158 -90.1 158 -85 158 C-85 157.67 -85 157.34 -85 157 C-89.95 157 -94.9 157 -100 157 Z M-99 182 C-99 182.33 -99 182.66 -99 183 C-94.38 183 -89.76 183 -85 183 C-85 182.67 -85 182.34 -85 182 C-89.62 182 -94.24 182 -99 182 Z " fill="#B66AE8" transform="translate(288,20)"/>
<path d="M0 0 C0.68884277 0.32581055 1.37768555 0.65162109 2.08740234 0.98730469 C16.67846351 8.01870245 29.81710178 17.44953427 41.50390625 28.62890625 C43.46790561 30.49455197 45.42677338 32.15919634 47.5625 33.8125 C60.20449753 44.55206101 70.3825324 61.62113648 77.13671875 76.5859375 C78.8509016 79.31871071 78.8509016 79.31871071 82.265625 79.8359375 C84.11414063 79.91714844 84.11414063 79.91714844 86 80 C87.71896484 80.10054687 87.71896484 80.10054687 89.47265625 80.203125 C102.14516232 80.36859842 112.9445159 78.86213604 123.890625 72.20703125 C126 71 126 71 128 71 C127.51570317 79.87877524 124.30104688 86.08754216 117.9375 92.3125 C112.88522635 96.58815726 107.3364855 98.37031168 101 100 C101.54269531 101.01578125 102.08539063 102.0315625 102.64453125 103.078125 C111.43596068 119.8321829 115.59894987 137.55873853 110.375 156.3125 C108.39999201 161.65259128 105.91891335 165.87807988 102 170 C101.38640625 170.65355469 100.7728125 171.30710938 100.140625 171.98046875 C93.6826988 178.25631056 85.98901079 182.04233457 78 186 C77.91098974 190.27249266 77.91492303 194.383192 78.5 198.625 C80.52390324 213.59593132 79.32010681 228.67886106 70 241 C62.8134227 249.63934777 53.83951775 254.47682667 43.54296875 258.62890625 C37.51102378 261.88115308 33.53949403 267.93377625 29.3125 273.1875 C4.58897572 303.45522389 -28.12928587 320.59167171 -67 325 C-71.98289958 325.30697918 -76.94584051 325.38220523 -81.9375 325.375 C-82.61053162 325.37412384 -83.28356323 325.37324768 -83.97698975 325.37234497 C-122.52531562 325.20805554 -156.52029334 310.82997785 -184 284 C-188.1528857 279.79984569 -192.08098331 275.61285654 -195.14453125 270.54296875 C-200.93700159 261.14576377 -206.55478071 257.69162681 -216.77734375 253.71875 C-227.13883887 249.68233514 -236.63150723 240.39643962 -241.1953125 230.21875 C-246.77368322 214.83761133 -246.13853641 199.10645581 -246 183 C-247.00933594 182.63648438 -247.00933594 182.63648438 -248.0390625 182.265625 C-262.26451889 176.18508691 -275.31085093 166.78512671 -282.05859375 152.52734375 C-286.53966724 140.49724188 -288.18679634 128.14624337 -288.125 115.375 C-288.12886719 114.56804687 -288.13273437 113.76109375 -288.13671875 112.9296875 C-288.13296416 110.61685813 -288.07116119 108.31158273 -288 106 C-287.99613281 104.741875 -287.99226563 103.48375 -287.98828125 102.1875 C-286.89148771 98.65001569 -286.58633613 98.37910978 -283.53515625 96.6640625 C-282.05335816 95.96478512 -280.56173413 95.2860684 -279.0625 94.625 C-264.69085785 87.56385759 -258.44991379 79.00905012 -251.14648438 65.12841797 C-234.34740886 33.94137786 -204.5098433 11.66512042 -173 -3 C-172.0203125 -3.46019531 -171.040625 -3.92039062 -170.03125 -4.39453125 C-154.47319761 -11.27765836 -137.71148103 -15.16273667 -121 -18 C-119.72125 -18.226875 -118.4425 -18.45375 -117.125 -18.6875 C-76.95814113 -24.61375787 -36.47300448 -17.31523316 0 0 Z M-121 5 C-124.23712815 10.19582525 -125.37204658 15.58643723 -126.4375 21.5625 C-127.5563592 27.50197598 -128.60446599 32.63819132 -133 37 C-139.22054498 41.13891447 -145.57346669 42.85083033 -153 42 C-157.94737758 40.38014856 -162.16931331 37.25304286 -166.5 34.4375 C-173.17515746 30.146985 -179.78961705 26.52013895 -188 28 C-200.68945579 31.84421101 -211.22682657 39.4243152 -218.609375 50.390625 C-221.21093692 55.27220748 -220.99993919 59.62810449 -220 65 C-218.67630349 68.41954932 -217.09987679 71.70221325 -215.5 75 C-208.82649898 88.80861802 -208.82649898 88.80861802 -211 97 C-213.30379495 101.78997367 -217.22366274 103.99669709 -222 106 C-225.39990234 106.35302734 -225.39990234 106.35302734 -229.0859375 106.3359375 C-230.44271311 106.34845102 -231.79948397 106.36148819 -233.15625 106.375 C-235.26482225 106.37891928 -237.37291864 106.37501447 -239.48144531 106.36035156 C-251.19401012 106.20346798 -251.19401012 106.20346798 -261 112 C-266.62530748 119.21193267 -266.21297971 125.38129928 -266.25 134.1875 C-266.270625 135.39470703 -266.29125 136.60191406 -266.3125 137.84570312 C-266.35222447 146.92770987 -265.68813823 154.21510751 -259 161 C-252.65655443 165.00589059 -245.57400026 167.69727593 -238.47265625 170.04296875 C-234.82134643 171.45619293 -231.826062 173.08848331 -229.1875 176 C-226.17071625 183.62134841 -228.16906748 191.3113582 -230 199 C-232.60594201 209.97943015 -233.8318126 220.02154401 -227.734375 230.08984375 C-221.4213272 238.39564653 -211.04175305 241.83594019 -201.625 245.5 C-191.78892552 249.59295041 -187.0331645 256.12117184 -181.27709961 264.73583984 C-164.41016145 289.88417526 -142.72553391 302.3347872 -113.31640625 308.421875 C-106.76591803 309.56377401 -100.38735887 310.16790566 -93.75 310.23828125 C-92.59853737 310.25283607 -92.59853737 310.25283607 -91.42381287 310.26768494 C-88.94915477 310.2925196 -86.47477015 310.30520288 -84 310.3125 C-83.15462677 310.31511841 -82.30925354 310.31773682 -81.43826294 310.32043457 C-51.71055738 310.33028552 -19.65866884 304.9836774 3.50390625 284.8203125 C10.22704968 278.06479438 14.68880917 270.14220012 19.18334961 261.79248047 C25.27031409 250.82419612 33.32883015 247.08671116 44.578125 242.43359375 C52.77660264 238.92534948 59.60521476 235.25182116 63.30859375 226.83203125 C67.58623904 215.4974796 63.93978547 204.85649984 59.87890625 194.00390625 C58.93873842 190.79062155 58.76594135 188.15202512 58.8125 184.8125 C58.81894531 183.78769531 58.82539063 182.76289063 58.83203125 181.70703125 C59 179 59 179 60 176 C61.79296875 174.921875 61.79296875 174.921875 64 174 C65.01513672 173.57460938 65.01513672 173.57460938 66.05078125 173.140625 C66.79714844 172.84671875 67.54351562 172.5528125 68.3125 172.25 C69.17875 171.899375 70.045 171.54875 70.9375 171.1875 C73.22125062 170.30196404 75.49678594 169.47935451 77.8125 168.6875 C87.23218297 165.47366011 87.23218297 165.47366011 93.3359375 157.9296875 C95.68745689 151.0964488 95.14966055 144.13792782 95 137 C94.98324219 135.83726562 94.96648437 134.67453125 94.94921875 133.4765625 C94.62121303 125.58568198 93.40158211 118.4023674 87.6315918 112.63134766 C80.83095356 107.28995568 72.13747063 108.3231616 63.9375 108.375 C61.63777762 108.37886792 59.3388362 108.37525656 57.03919983 108.35440063 C55.61675075 108.34245947 54.19408054 108.34473273 52.77171326 108.36410522 C47.72831794 108.33592918 44.40295518 107.28503062 40 105 C35.21947748 99.84206781 34.61635854 96.42462935 34.6328125 89.546875 C35.03870871 85.62609037 36.13050104 82.22521243 37.5 78.5625 C40.45734965 70.52114412 42.08775688 61.97281686 38.5625 53.8125 C32.02799642 42.94458878 21.66487167 33.96425253 9.6953125 29.66796875 C2.00807092 27.76286975 -4.77452692 27.91506845 -11.8125 31.6875 C-13.55952903 32.76318163 -15.29007011 33.86627113 -17 35 C-18.45688887 35.91896067 -19.91508807 36.83584954 -21.375 37.75 C-21.96023438 38.13671875 -22.54546875 38.5234375 -23.1484375 38.921875 C-29.5398226 42.64344101 -36.13177652 43.05081384 -43.31640625 41.5 C-47.90850207 39.96639684 -51.0224053 37.91341018 -54 34 C-55.93381865 29.88607448 -56.88344035 25.52822716 -57.859375 21.10546875 C-59.98934761 10.18637859 -59.98934761 10.18637859 -67 2 C-69.6060098 0.66680966 -72.17344126 -0.25616875 -75 -1 C-75.57717773 -1.17128418 -76.15435547 -1.34256836 -76.74902344 -1.51904297 C-81.76052121 -2.58982937 -87.02188779 -2.22823833 -92.125 -2.25 C-93.3109375 -2.270625 -94.496875 -2.29125 -95.71875 -2.3125 C-104.54119592 -2.3514512 -114.70808125 -2.03214449 -121 5 Z " fill="#FCFBFD" transform="translate(288,20)"/>
<path d="M0 0 C3.2140855 -0.00217609 6.42782106 -0.02035864 9.6418457 -0.03930664 C27.00811719 -0.08807118 43.97590033 0.92757267 60.99536133 4.56030273 C62.05086182 4.77871826 63.1063623 4.99713379 64.19384766 5.22216797 C72.28049293 6.92406487 80.23664375 8.91363026 88.18286133 11.18530273 C89.97916992 11.64356445 89.97916992 11.64356445 91.81176758 12.11108398 C100.71841712 14.44583678 109.02515167 17.31766584 115.87036133 23.68530273 C117.50501245 26.79892392 117.62635866 28.7112403 117.18286133 32.18530273 C116.73040039 33.04381836 116.73040039 33.04381836 116.26879883 33.91967773 C114.80161232 36.98071432 114.18936987 40.06473687 113.43286133 43.37280273 C106.17425929 73.42687163 90.85561776 99.9082795 64.56958008 117.18920898 C46.80546511 127.65917755 28.73401043 132.56981268 8.12036133 132.43530273 C6.93120117 132.44303711 5.74204102 132.45077148 4.5168457 132.45874023 C-18.81939348 132.40747996 -41.38248128 123.74331298 -58.81713867 108.18530273 C-59.62151367 107.52272461 -60.42588867 106.86014648 -61.25463867 106.17749023 C-82.03764676 88.57688026 -91.71624384 64.45757974 -99.25463867 38.99780273 C-99.51398193 38.13711182 -99.7733252 37.2764209 -100.04052734 36.38964844 C-103.46767665 24.33866518 -103.46767665 24.33866518 -100.81323242 19.26733398 C-86.94072255 7.96767055 -62.89900124 5.70869905 -45.81713867 2.93530273 C-44.81569824 2.77215576 -43.81425781 2.60900879 -42.7824707 2.44091797 C-28.53130812 0.23624693 -14.39074645 -0.00108667 0 0 Z M-6.81713867 10.18530273 C-6.81713867 10.51530273 -6.81713867 10.84530273 -6.81713867 11.18530273 C-1.86713867 11.18530273 3.08286133 11.18530273 8.18286133 11.18530273 C8.18286133 10.85530273 8.18286133 10.52530273 8.18286133 10.18530273 C3.23286133 10.18530273 -1.71713867 10.18530273 -6.81713867 10.18530273 Z M-5.81713867 35.18530273 C-5.81713867 35.51530273 -5.81713867 35.84530273 -5.81713867 36.18530273 C-1.19713867 36.18530273 3.42286133 36.18530273 8.18286133 36.18530273 C8.18286133 35.85530273 8.18286133 35.52530273 8.18286133 35.18530273 C3.56286133 35.18530273 -1.05713867 35.18530273 -5.81713867 35.18530273 Z " fill="#3B1F90" transform="translate(194.817138671875,166.814697265625)"/>
<path d="M0 0 C3.87355905 -0.35272475 6.80838073 -1.83677377 10.25 -3.5625 C21.39760761 -8.29886038 34.79561916 -7.14813046 46 -3 C55.36042317 0.85921358 62.86350523 5.74840048 70 13 C60.13396931 28.88084765 40.5065155 37.55909487 23 42 C21.81470703 42.33644531 21.81470703 42.33644531 20.60546875 42.6796875 C-1.56613397 48.1942599 -26.41681771 42.08689486 -45.74609375 30.86328125 C-64.80418455 19.34172995 -64.80418455 19.34172995 -66.76171875 12.234375 C-66.84035156 11.49703125 -66.91898438 10.7596875 -67 10 C-47.07379211 -4.21564831 -23.07684875 -15.38456584 0 0 Z " fill="#F2A5C3" transform="translate(201,245)"/>
<path d="M0 0 C0.95039154 0.17816254 0.95039154 0.17816254 1.91998291 0.35992432 C6.99804603 1.31833629 12.06405369 2.3301398 17.125 3.375 C17.81010651 3.51575958 18.49521301 3.65651917 19.20108032 3.80154419 C43.20133098 8.80088732 43.20133098 8.80088732 51 14 C52.58985537 20.14744078 50.26125517 25.43644828 47.484375 30.8359375 C44.91195345 34.58625734 42.61218071 35.8265488 38.25 37.0625 C33.646208 37.44304034 30.00875233 36.07922108 25.8125 34.375 C4.33258294 25.65702723 -19.96013105 22.85530836 -43 22 C-44.04929687 21.95875 -45.09859375 21.9175 -46.1796875 21.875 C-68.8130501 21.44078681 -91.19955447 24.77175473 -112.82763672 31.3371582 C-125.35083035 35.05966786 -125.35083035 35.05966786 -130.8125 32.875 C-136.37851821 28.10412725 -138.53817077 23.08765686 -140 16 C-140.0202191 14.33345598 -140.0229145 12.66650914 -140 11 C-131.33089907 7.49976217 -122.50458452 5.32312419 -113.375 3.4375 C-112.64614594 3.28658905 -111.91729187 3.1356781 -111.16635132 2.98019409 C-106.11898427 1.94337045 -101.0636665 0.9538885 -96 0 C-94.93507324 -0.20077148 -93.87014648 -0.40154297 -92.77294922 -0.60839844 C-63.33625106 -5.82578906 -29.35559026 -5.5245497 0 0 Z " fill="#FCFBFD" transform="translate(246,181)"/>
<path d="M0 0 C5.92704102 3.72206869 11.57340505 8.71752945 15.45703125 14.54296875 C15.58203125 17.23046875 15.58203125 17.23046875 15.45703125 19.54296875 C11.30941463 19.19733403 8.25572044 18.58985107 4.58203125 16.60546875 C-3.90727223 12.13313454 -14.05816694 10.98378143 -23.40234375 13.23046875 C-29.26179142 15.2167222 -34.3193329 18.02939471 -39.44921875 21.46875 C-40.485625 22.00048828 -40.485625 22.00048828 -41.54296875 22.54296875 C-42.53296875 22.21296875 -43.52296875 21.88296875 -44.54296875 21.54296875 C-44.22887956 15.41822961 -41.45617109 11.07818917 -37.54296875 6.54296875 C-26.87879703 -2.58293509 -13.26776688 -6.09481165 0 0 Z " fill="#3A1F91" transform="translate(149.54296875,123.45703125)"/>
<path d="M0 0 C6.84303431 4.11506793 13.17980865 9.89735323 16.3125 17.390625 C16.3125 18.710625 16.3125 20.030625 16.3125 21.390625 C12.31524599 21.08314392 9.60600563 20.07752514 6.25 18.015625 C-2.25667007 13.08318605 -12.93141566 11.09169626 -22.6875 12.390625 C-27.77474094 13.77991168 -32.43213321 15.75152918 -37.125 18.140625 C-39.6875 19.390625 -39.6875 19.390625 -43.6875 19.390625 C-44.04740346 16.13407921 -43.89426667 14.70576937 -42.0703125 11.92578125 C-30.79382589 -0.42372744 -16.49585511 -7.70530074 0 0 Z " fill="#391E91" transform="translate(278.6875,123.609375)"/>
<path d="M0 0 C2.00390625 0.80859375 2.00390625 0.80859375 5.00390625 2.80859375 C3.50352437 6.62774763 1.17125207 8.30805758 -1.99609375 10.80859375 C-1.99609375 11.46859375 -1.99609375 12.12859375 -1.99609375 12.80859375 C-0.43753394 14.16571541 -0.43753394 14.16571541 1.50390625 15.43359375 C2.15359375 15.87960938 2.80328125 16.325625 3.47265625 16.78515625 C3.97796875 17.12289062 4.48328125 17.460625 5.00390625 17.80859375 C4.01390625 20.28359375 4.01390625 20.28359375 3.00390625 22.80859375 C-0.02645602 22.37568485 -1.9461139 21.84028829 -4.55859375 20.18359375 C-6.82035977 18.63017126 -6.82035977 18.63017126 -8.99609375 18.87109375 C-11.21074576 19.80227187 -11.21074576 19.80227187 -13.49609375 21.93359375 C-15.99609375 23.80859375 -15.99609375 23.80859375 -18.18359375 23.74609375 C-19.99609375 22.80859375 -19.99609375 22.80859375 -21.99609375 19.80859375 C-19.02609375 16.34359375 -19.02609375 16.34359375 -15.99609375 12.80859375 C-18.96609375 10.82859375 -21.93609375 8.84859375 -24.99609375 6.80859375 C-24.33609375 5.15859375 -23.67609375 3.50859375 -22.99609375 1.80859375 C-20.34347088 2.31871353 -18.47569188 3.08540325 -16.05859375 4.37109375 C-12.14568089 6.23024648 -12.14568089 6.23024648 -7.99609375 5.80859375 C-6.36027503 4.30449031 -4.93102789 2.74295928 -3.5234375 1.0234375 C-1.99609375 -0.19140625 -1.99609375 -0.19140625 0 0 Z " fill="#371D8D" transform="translate(312.99609375,147.19140625)"/>
</svg>
